<svg xmlns="http://www.w3.org/2000/svg" width="48" height="48" viewBox="0 0 48 48">
  <path d="m18.855 32.57c0 0.71484-0.10938 1.4492-0.33203 2.1992-0.22266 0.75-0.60938 1.4258-1.1523 2.0352-0.54688 0.60547-1.1914 0.91016-1.9414 0.91016s-1.3984-0.30469-1.9414-0.91016c-0.54688-0.60938-0.92969-1.2852-1.1523-2.0352-0.22266-0.75-0.33594-1.4844-0.33594-2.1992 0-0.71484 0.11328-1.4453 0.33594-2.1953 0.22266-0.75 0.60547-1.4297 1.1523-2.0352 0.54297-0.60938 1.1914-0.91016 1.9414-0.91016s1.3945 0.30078 1.9414 0.91016c0.54297 0.60547 0.92969 1.2852 1.1523 2.0352 0.22266 0.75 0.33203 1.4805 0.33203 2.1953zm17.145 0c0 0.71484-0.11328 1.4492-0.33594 2.1992-0.22266 0.75-0.60547 1.4258-1.1523 2.0352-0.54297 0.60547-1.1914 0.91016-1.9414 0.91016s-1.3945-0.30469-1.9414-0.91016c-0.54297-0.60938-0.92969-1.2852-1.1523-2.0352-0.22266-0.75-0.33203-1.4844-0.33203-2.1992 0-0.71484 0.10938-1.4453 0.33203-2.1953 0.22266-0.75 0.60938-1.4297 1.1523-2.0352 0.54688-0.60938 1.1914-0.91016 1.9414-0.91016s1.3984 0.30078 1.9414 0.91016c0.54688 0.60547 0.92969 1.2852 1.1523 2.0352 0.22266 0.75 0.33594 1.4805 0.33594 2.1953zm4.2852 0c0-2.1406-0.61719-3.9648-1.8477-5.4648s-2.9023-2.25-5.0078-2.25c-0.73438 0-2.4727 0.1875-5.2227 0.5625-1.2695 0.19922-2.6719 0.29688-4.207 0.29688s-2.9375-0.097656-4.207-0.29688c-2.7109-0.375-4.4531-0.5625-5.2227-0.5625-2.1055 0-3.7773 0.75-5.0078 2.25s-1.8477 3.3242-1.8477 5.4648c0 1.5742 0.28516 2.9414 0.85547 4.1133 0.57422 1.168 1.2969 2.0898 2.1719 2.7578 0.875 0.67188 1.9648 1.207 3.2656 1.6094 1.3047 0.39844 2.5547 0.66406 3.75 0.78906 1.1992 0.125 2.5273 0.1875 3.9922 0.1875h4.5c1.4648 0 2.793-0.0625 3.9922-0.1875 1.1953-0.125 2.4453-0.39062 3.75-0.78906 1.3008-0.40234 2.3906-0.9375 3.2656-1.6094 0.875-0.66797 1.5977-1.5898 2.1719-2.7578 0.57031-1.1719 0.85547-2.5391 0.85547-4.1133zm6-4.7148c0 3.6992-0.54297 6.6523-1.6328 8.8672-0.67969 1.375-1.6211 2.5625-2.8281 3.5625-1.2031 1-2.4609 1.7695-3.7734 2.3047s-2.832 0.96094-4.5547 1.2734-3.2539 0.50781-4.5938 0.58594c-1.3398 0.082031-2.832 0.12109-4.4727 0.12109-1.3945 0-2.6602-0.027343-3.8047-0.078124-1.1445-0.054688-2.4609-0.16797-3.9492-0.33594-1.4922-0.16797-2.8555-0.4375-4.0859-0.80469-1.2344-0.36328-2.457-0.82422-3.6719-1.3789-1.2109-0.55469-2.293-1.2773-3.2383-2.168-0.94922-0.89453-1.7148-1.9219-2.3047-3.082-1.1055-2.1953-1.6602-5.1523-1.6602-8.8672 0-4.2305 1.2148-7.7656 3.6406-10.605-0.48047-1.4648-0.72266-2.9805-0.72266-4.5547 0-2.0703 0.45703-4.0156 1.3672-5.8398 1.9297 0 3.625 0.35547 5.0898 1.0586 1.4648 0.70703 3.1523 1.8086 5.0625 3.3086 2.625-0.625 5.3828-0.9375 8.2773-0.9375 2.6406 0 5.1406 0.28516 7.5 0.85938 1.875-1.4648 3.543-2.5469 5.0078-3.2422 1.4648-0.69531 3.1523-1.0469 5.0625-1.0469 0.91016 1.8242 1.3672 3.7695 1.3672 5.8398 0 1.5547-0.24219 3.0547-0.72266 4.5 2.4258 2.8594 3.6406 6.4102 3.6406 10.66z"/>
</svg>
