<svg width="48" height="48" viewBox="0 0 48 48" xmlns="http://www.w3.org/2000/svg">
  <path d="m29.938 24.355c0 2.8867-0.60547 5.4609-1.8125 7.7188-1.207 2.2539-2.9297 4.0195-5.168 5.2891-2.2344 1.2734-4.7969 1.9062-7.6875 1.9062-2.0664 0-4.0469-0.40234-5.9375-1.207-1.8867-0.80469-3.5117-1.8906-4.875-3.25-1.3594-1.3594-2.4414-2.9844-3.25-4.875-0.80469-1.8906-1.207-3.8672-1.207-5.9375s0.40234-4.0469 1.207-5.9375c0.80859-1.8906 1.8906-3.5156 3.25-4.875 1.3633-1.3594 2.9883-2.4453 4.875-3.25 1.8906-0.80469 3.8711-1.207 5.9375-1.207 3.9727 0 7.3828 1.332 10.23 4l-4.1445 3.9766c-1.625-1.5664-3.6523-2.3516-6.0859-2.3516-1.707 0-3.2852 0.42969-4.7383 1.2891-1.4531 0.86328-2.6016 2.0312-3.4492 3.5117-0.84766 1.4805-1.2695 3.0938-1.2695 4.8438s0.42188 3.3633 1.2695 4.8438c0.84766 1.4805 1.9961 2.6484 3.4492 3.5117 1.4531 0.85938 3.0312 1.2891 4.7383 1.2891 1.1523 0 2.2148-0.16016 3.1797-0.47656 0.96484-0.32031 1.7578-0.71875 2.3828-1.1992s1.1719-1.0234 1.6367-1.6367c0.46484-0.60938 0.80469-1.1875 1.0195-1.7266 0.21484-0.54297 0.36719-1.0586 0.44922-1.543h-8.668v-5.25h14.418c0.16797 0.875 0.25 1.7227 0.25 2.543zm18.062-2.543v4.375h-4.3555v4.3555h-4.375v-4.3555h-4.3516v-4.375h4.3516v-4.3555h4.375v4.3555z"/>
</svg>
