<svg xmlns="http://www.w3.org/2000/svg" width="48" height="48" viewBox="0 0 48 48">
  <path d="m0.85156 14.359v19.281h1.3906v0.46484h-1.9219v-20.211h1.9219v0.46484z"/>
  <path d="m6.1992 20.473v0.97656h0.027343c0.26172-0.375 0.57422-0.66016 0.94141-0.86719 0.36719-0.20312 0.78906-0.30469 1.2617-0.30469 0.45703 0 0.87109 0.085937 1.2461 0.26562 0.37891 0.17578 0.66406 0.48438 0.85938 0.93359 0.21484-0.31641 0.50391-0.59766 0.87109-0.83594 0.36719-0.24219 0.80078-0.36328 1.3047-0.36328 0.37891 0 0.73437 0.046875 1.0586 0.13672 0.32422 0.09375 0.60547 0.24219 0.83594 0.44922 0.23047 0.20312 0.41406 0.46875 0.54297 0.80078 0.13281 0.32813 0.19531 0.72656 0.19531 1.1914v4.8242h-1.9805v-4.0859c0-0.24219-0.007812-0.46875-0.027343-0.68359-0.015626-0.21094-0.070313-0.39844-0.15234-0.55859-0.082032-0.15625-0.20703-0.28125-0.37109-0.375-0.16016-0.09375-0.38281-0.14062-0.66016-0.14062s-0.50391 0.054687-0.67578 0.16016c-0.17187 0.10938-0.30859 0.25-0.40625 0.42188-0.097656 0.17188-0.16016 0.36719-0.19531 0.58203-0.03125 0.21875-0.046875 0.44141-0.046875 0.66406v4.0156h-1.9805v-4.043c0-0.21484-0.003906-0.42578-0.011718-0.63672-0.011719-0.20703-0.050782-0.39844-0.12109-0.57812-0.070313-0.17578-0.18359-0.31641-0.34766-0.42578-0.16406-0.10547-0.40234-0.16016-0.71875-0.16016-0.09375 0-0.21484 0.023437-0.36719 0.066406-0.15625 0.039062-0.30469 0.11719-0.44531 0.23438-0.14453 0.11719-0.26953 0.28516-0.37109 0.50391-0.10156 0.21875-0.15234 0.50391-0.15234 0.85547v4.1836h-1.9805v-7.207z"/>
  <path d="m16.613 21.531c0.20312-0.30859 0.46484-0.55469 0.78125-0.73828 0.31641-0.1875 0.67188-0.32031 1.0664-0.39844 0.39453-0.078125 0.79297-0.11719 1.1914-0.11719 0.36328 0 0.73047 0.023437 1.1016 0.074218 0.37109 0.050782 0.71094 0.15234 1.0156 0.30078 0.30859 0.14844 0.55859 0.35547 0.75391 0.62109 0.19531 0.26562 0.29297 0.61719 0.29297 1.0508v3.75c0 0.32812 0.019532 0.63672 0.054688 0.93359 0.039062 0.30078 0.10156 0.52344 0.19531 0.67188h-2.0078c-0.035156-0.11328-0.066406-0.22656-0.089844-0.34375-0.023438-0.11328-0.039062-0.23438-0.046875-0.35547-0.31641 0.32812-0.6875 0.55469-1.1172 0.68359-0.42578 0.12891-0.86328 0.19531-1.3086 0.19531-0.34375 0-0.66406-0.042969-0.96484-0.125-0.29688-0.082031-0.55469-0.21484-0.77734-0.39062-0.22656-0.17578-0.39844-0.39844-0.52344-0.66797s-0.1875-0.58984-0.1875-0.96484c0-0.40625 0.070312-0.74219 0.21484-1.0078 0.14453-0.26562 0.32813-0.47656 0.55859-0.63672 0.22656-0.15625 0.48828-0.27344 0.78125-0.35547 0.28906-0.078126 0.58594-0.14063 0.88281-0.1875 0.29688-0.046876 0.58984-0.082032 0.87891-0.10938 0.28906-0.027343 0.54297-0.070312 0.76562-0.125 0.22266-0.058593 0.40234-0.13672 0.53125-0.24609 0.12891-0.10547 0.19141-0.26172 0.17969-0.46484 0-0.21484-0.035157-0.38672-0.10547-0.51172-0.066407-0.125-0.16016-0.22266-0.27734-0.29297-0.11719-0.066407-0.25-0.11328-0.40234-0.13672-0.15625-0.023438-0.32031-0.035157-0.49609-0.035157-0.39063 0-0.69531 0.082032-0.92188 0.25-0.22266 0.16797-0.35156 0.44531-0.39062 0.83594h-1.9766c0.027344-0.46484 0.14453-0.85156 0.34766-1.1562zm3.9102 2.793c-0.125 0.042969-0.26172 0.078125-0.40625 0.10547-0.14063 0.027343-0.29297 0.050781-0.45313 0.070312-0.15625 0.019531-0.3125 0.042969-0.47266 0.070312-0.14844 0.027344-0.29297 0.066407-0.4375 0.10938-0.14453 0.046874-0.26953 0.10937-0.37891 0.19141-0.10547 0.078125-0.19141 0.17578-0.25781 0.29688-0.0625 0.12109-0.097657 0.27734-0.097657 0.46094 0 0.17578 0.035157 0.32422 0.097657 0.44531 0.066406 0.12109 0.15625 0.21875 0.26562 0.28516 0.11328 0.070313 0.24219 0.12109 0.39063 0.14844 0.14844 0.027344 0.30078 0.042969 0.46094 0.042969 0.39062 0 0.69141-0.066406 0.90625-0.19531 0.21484-0.13281 0.37109-0.28906 0.47266-0.46875 0.10156-0.17969 0.16406-0.36328 0.1875-0.55078 0.023438-0.18359 0.035157-0.33203 0.035157-0.44531v-0.73828c-0.082032 0.074218-0.1875 0.13281-0.3125 0.17188z"/>
  <path d="m28.031 20.473v1.3242h-1.4492v3.5664c0 0.33594 0.054688 0.55859 0.16406 0.67188 0.11328 0.10938 0.33594 0.16406 0.67188 0.16406 0.10938 0 0.21875-0.003907 0.32031-0.011719 0.10156-0.011719 0.19922-0.023438 0.29297-0.042969v1.5352c-0.16797 0.027343-0.35547 0.046874-0.55859 0.054687s-0.40625 0.015625-0.60156 0.015625c-0.30469 0-0.59375-0.023438-0.87109-0.066406-0.27344-0.039063-0.51562-0.12109-0.72266-0.24219-0.21094-0.12109-0.375-0.29297-0.49609-0.51562-0.12109-0.22266-0.17969-0.51562-0.17969-0.87891v-4.25h-1.1992v-1.3242h1.1992v-2.1602h1.9805v2.1602z"/>
  <path d="m30.859 20.473v1.3359h0.027344c0.09375-0.22266 0.21875-0.42969 0.37891-0.62109 0.15625-0.1875 0.33594-0.35156 0.54297-0.48438 0.20312-0.13672 0.42188-0.24219 0.65234-0.31641 0.23437-0.074219 0.47656-0.10938 0.72656-0.10938 0.12891 0 0.27344 0.023437 0.43359 0.070312v1.8398c-0.09375-0.019531-0.20703-0.035156-0.33594-0.050781-0.12891-0.011719-0.25391-0.019531-0.375-0.019531-0.36328 0-0.67188 0.058593-0.92188 0.17969s-0.45312 0.28516-0.60547 0.49609c-0.15234 0.20703-0.26172 0.45312-0.32812 0.73047-0.066407 0.28125-0.097657 0.58203-0.097657 0.90625v3.25h-1.9805v-7.207z"/>
  <path d="m34.457 19.355v-1.6289h1.9805v1.6289zm1.9805 1.1172v7.207h-1.9805v-7.207z"/>
  <path d="m37.469 20.473h2.2578l1.2695 1.8789 1.2539-1.8789h2.1875l-2.3711 3.3711 2.6641 3.8359h-2.2578l-1.5078-2.2734-1.5039 2.2734h-2.2148l2.5898-3.793z"/>
  <path d="m47.148 33.641v-19.281h-1.3906v-0.46484h1.9219v20.211h-1.9219v-0.46484z"/>
</svg>
