<svg xmlns="http://www.w3.org/2000/svg" width="48" height="48" viewBox="0 0 48 48">
  <path d="m47.25 0.29297c0.58984 0.42969 0.83203 1 0.72266 1.7148l-6.8555 41.145c-0.089844 0.51562-0.375 0.91797-0.85938 1.2031-0.25 0.14453-0.52734 0.21484-0.82812 0.21484-0.19922 0-0.41016-0.042968-0.64453-0.13281l-12.133-4.957-6.4844 7.9023c-0.32031 0.41016-0.75781 0.61719-1.3125 0.61719-0.23047 0-0.42578-0.035156-0.58594-0.10547-0.33984-0.125-0.61328-0.33594-0.82031-0.63281-0.20312-0.29297-0.30469-0.61719-0.30469-0.97656v-9.3477l23.141-28.367-28.633 24.777-10.582-4.3398c-0.66016-0.25-1.0156-0.73828-1.0703-1.4727-0.035156-0.71484 0.25-1.2422 0.85547-1.5781l44.574-25.715c0.26562-0.16016 0.55078-0.24219 0.85547-0.24219 0.35938 0 0.67969 0.097656 0.96484 0.29297z"/>
</svg>
