<svg width="48" height="48" viewBox="0 0 48 48" xmlns="http://www.w3.org/2000/svg">
  <path d="m45.105 10.93c-1.1953 1.75-2.6406 3.2383-4.3359 4.4727 0.015625 0.25 0.023438 0.625 0.023438 1.125 0 2.3203-0.33594 4.6367-1.0156 6.9492-0.67969 2.3125-1.7109 4.5312-3.0938 6.6562-1.3828 2.125-3.0312 4.0039-4.9414 5.6406-1.9102 1.6328-4.2148 2.9375-6.9102 3.9102-2.6992 0.97266-5.582 1.4609-8.6523 1.4609-4.8398 0-9.2695-1.2969-13.285-3.8867 0.625 0.074219 1.3203 0.10938 2.0859 0.10938 4.0195 0 7.6016-1.2344 10.742-3.6992-1.875-0.035157-3.5547-0.60938-5.0352-1.7266-1.4805-1.1172-2.5-2.5391-3.0547-4.2734 0.58984 0.089843 1.1367 0.13672 1.6367 0.13672 0.76562 0 1.5234-0.097657 2.2734-0.29688-2-0.41016-3.6562-1.4062-4.9688-2.9844-1.3125-1.582-1.9688-3.418-1.9688-5.5039v-0.10938c1.2148 0.67969 2.5195 1.0469 3.9141 1.0977-1.1797-0.78516-2.1172-1.8125-2.8125-3.0781-0.69922-1.2695-1.0469-2.6445-1.0469-4.125 0-1.5742 0.39453-3.0273 1.1797-4.3672 2.1602 2.6602 4.7891 4.7891 7.8867 6.3867 3.0977 1.6016 6.418 2.4883 9.9531 2.668-0.14453-0.67969-0.21484-1.3398-0.21484-1.9844 0-2.3906 0.84375-4.4336 2.5312-6.1211s3.7266-2.5312 6.1211-2.5312c2.5 0 4.6055 0.91406 6.3203 2.7344 1.9453-0.375 3.7773-1.0703 5.4922-2.0898-0.66016 2.0547-1.9297 3.6445-3.8047 4.7695 1.6602-0.17969 3.3203-0.625 4.9805-1.3398z"/>
</svg>